<?xml version="1.0" encoding="utf-8"?>
<!-- Generator: Adobe Illustrator 16.0.3, SVG Export Plug-In . SVG Version: 6.00 Build 0)  -->
<!DOCTYPE svg PUBLIC "-//W3C//DTD SVG 1.1//EN" "http://www.w3.org/Graphics/SVG/1.1/DTD/svg11.dtd">
<svg version="1.1" xmlns="http://www.w3.org/2000/svg" xmlns:xlink="http://www.w3.org/1999/xlink" x="0px" y="0px" width="288px"
	 height="288px" viewBox="0 0 288 288" enable-background="new 0 0 288 288" xml:space="preserve">
<g id="Layer_2" display="none">
	<rect display="inline" width="288" height="288"/>
</g>
<g id="Layer_1">
	<path fill="#FFFFFF" d="M217.265,188.269"/>
	<path fill="#FFFFFF" d="M97.472,165.144"/>
	<path fill="#FFFFFF" d="M120.36,198.415l17.009,24.739c3.362,4.998,5.323,11.016,5.323,17.493c0,9.266-4.018,17.597-10.405,23.342
		c-0.011,0.01-23.099-33.58-45.068-65.574H120.36z"/>
	<path fill="#FFFFFF" d="M82.11,198.415l1.977,2.854c3.362,4.999,5.323,11.016,5.323,17.493c0,9.269-4.017,17.598-10.404,23.345
		c-0.008,0.008-13.759-19.984-30.042-43.692H82.11z"/>
	<path fill="#FFFFFF" d="M269.554,98.418c0-53.097-43.044-96.141-96.141-96.141S77.272,45.321,77.272,98.418
		c0,20.032,6.126,38.632,16.607,54.029l0.002,0.003c0,0,91.744,133.646,91.767,133.624c6.388-5.744,10.404-14.074,10.404-23.343
		c0-6.476-1.961-12.494-5.322-17.492l-36.171-52.53c6.097,1.213,12.401,1.849,18.854,1.849
		C226.51,194.558,269.554,151.517,269.554,98.418z M102.076,98.141c0-39.246,31.814-71.061,71.06-71.061
		s71.061,31.814,71.061,71.061s-31.814,71.062-71.061,71.062S102.076,137.387,102.076,98.141z"/>
	<path fill="#FFFFFF" d="M227.477,98.141c0,30.011-24.33,54.34-54.341,54.34s-54.34-24.329-54.34-54.34s24.33-54.341,54.34-54.341
		c15.005,0,28.589,6.082,38.423,15.915l-17.73,17.737c-5.295-5.296-12.611-8.571-20.692-8.571c-16.16,0-29.26,13.1-29.26,29.26
		s13.1,29.26,29.26,29.26c16.161,0,29.261-13.1,29.261-29.26H227.477z"/>
	<path fill="#FFFFFF" d="M72.815,98.141c0-12.63,2.333-24.714,6.595-35.847c-3.381-1.151-7.005-1.774-10.774-1.774
		c-18.469,0-33.44,14.973-33.44,33.441c0,0.947,0.04,1.885,0.117,2.812c-19.542,6.854-33.557,25.465-33.557,47.349
		c0,27.703,22.458,50.159,50.16,50.159h65.589l-28.738-41.8l8.706,12.663l-8.687-12.677c-10.043-15.559-15.897-34.078-15.97-53.957
		h0.002"/>
	<path fill="#FFFFFF" d="M240.016,194.28c25.396,0,45.981-20.586,45.981-45.979c0-12.964-5.365-24.675-13.996-33.033H272
		c-5.53,32.154-26.367,59.075-54.738,72.994c-4.924,2.413-10.074,4.438-15.414,6.029h39.329"/>
</g>
<g id="Layer_3" display="none">
	<g display="inline">
		<path d="M217.386,188.484c-4.924,2.414-10.074,4.438-15.414,6.029h39.329l-6.676-3.016l-6.619-3.014H217.386z"/>
		<path d="M217.385,188.484c28.372-13.918,49.209-40.84,54.739-72.993h0.001c8.631,8.358,13.996,20.068,13.996,33.032
			c0,25.393-20.586,45.979-45.981,45.979c-8.276,0-16.041-2.184-22.751-6.012"/>
		<path d="M72.939,98.732c0.073,19.879,5.926,38.398,15.97,53.958l8.687,12.676c-7.951,17.203-25.36,29.137-45.557,29.137
			c-27.703,0-50.16-22.455-50.16-50.158c0-27.704,22.458-50.161,50.16-50.161c7.46,0,14.54,1.628,20.902,4.549"/>
		<path d="M76.969,126.607c-2.623-8.958-4.03-18.437-4.03-28.244c0-12.63,2.333-24.714,6.595-35.847
			c-3.381-1.151-7.005-1.774-10.774-1.774c-18.469,0-33.44,14.973-33.44,33.441c0,18.468,14.971,33.44,33.44,33.44
			c2.833,0,5.584-0.352,8.211-1.016"/>
		<path d="M269.4,98.363c0,53.098-43.044,96.139-96.141,96.139s-96.141-43.041-96.141-96.139c0-53.097,43.044-96.141,96.141-96.141
			S269.4,45.266,269.4,98.363z M173.26,27.302c-39.246,0-71.06,31.814-71.06,71.061s31.813,71.061,71.06,71.061
			s71.061-31.815,71.061-71.061S212.506,27.302,173.26,27.302z"/>
		<path d="M227.601,98.363c0,30.011-24.33,54.34-54.341,54.34s-54.341-24.329-54.341-54.34s24.33-54.341,54.341-54.341
			c15.005,0,28.589,6.082,38.423,15.915l-17.73,17.737c-5.295-5.296-12.611-8.571-20.692-8.571c-16.16,0-29.26,13.1-29.26,29.26
			s13.1,29.26,29.26,29.26c16.161,0,29.261-13.1,29.261-29.26H227.601z"/>
		<polygon points="52.039,194.502 117.628,194.502 88.89,152.703 59.122,157.813 		"/>
		<path d="M185.494,286.02c6.388-5.744,10.404-14.074,10.404-23.344c0-6.475-1.961-12.494-5.322-17.492l-36.15-52.637
			l-45.194-33.178l-15.504-6.975L185.494,286.02z"/>
		<path d="M120.484,198.637l17.009,24.74c3.362,4.998,5.324,11.016,5.324,17.492c0,9.266-4.018,17.598-10.406,23.342
			c-0.011,0.01-23.099-33.58-45.067-65.574H120.484z"/>
		<path d="M82.234,198.637l1.978,2.855c3.361,4.998,5.322,11.016,5.322,17.492c0,9.27-4.017,17.598-10.404,23.346
			c-0.008,0.008-13.759-19.984-30.042-43.693H82.234z"/>
	</g>
</g>
</svg>
