<?xml version="1.0" encoding="utf-8"?>
<!-- Generator: Adobe Illustrator 16.0.3, SVG Export Plug-In . SVG Version: 6.00 Build 0)  -->
<!DOCTYPE svg PUBLIC "-//W3C//DTD SVG 1.1//EN" "http://www.w3.org/Graphics/SVG/1.1/DTD/svg11.dtd">
<svg version="1.1" xmlns="http://www.w3.org/2000/svg" xmlns:xlink="http://www.w3.org/1999/xlink" x="0px" y="0px" width="288px"
	 height="288px" viewBox="0 0 288 288" enable-background="new 0 0 288 288" xml:space="preserve">
<g id="Layer_2" display="none">
	<rect display="inline" width="288" height="288"/>
</g>
<g id="Layer_1">
	<path fill="#3B97D3" d="M214.973,186.596"/>
	<path fill="#3B97D3" d="M98.834,164.176"/>
	<path fill="#3B97D3" d="M119.025,202.374l16.49,23.985c3.259,4.846,5.161,10.679,5.161,16.96c0,8.982-3.895,17.06-10.088,22.629
		c-0.011,0.01-22.395-32.555-43.693-63.574H119.025z"/>
	<path fill="#3B97D3" d="M77.941,202.374l1.917,2.769c3.26,4.847,5.16,10.679,5.16,16.959c0,8.986-3.894,17.062-10.087,22.633
		c-0.007,0.008-13.339-19.375-29.126-42.36H77.941z"/>
	<path fill="#3B97D3" d="M265.667,99.485c0-51.478-41.73-93.208-93.208-93.208c-51.477,0-93.208,41.73-93.208,93.208
		c0,19.42,5.939,37.454,16.101,52.381l0.002,0.003c0,0,88.946,129.57,88.967,129.549c6.193-5.569,10.087-13.645,10.087-22.632
		c0-6.277-1.901-12.112-5.16-16.958L154.18,190.9c5.91,1.176,12.023,1.792,18.279,1.792
		C223.937,192.692,265.667,150.965,265.667,99.485z M103.298,99.216c0-38.049,30.843-68.893,68.893-68.893
		c38.049,0,68.893,30.844,68.893,68.893c0,38.049-30.844,68.894-68.893,68.894C134.141,168.11,103.298,137.266,103.298,99.216z"/>
	<path fill="#3B97D3" d="M224.874,99.216c0,29.096-23.589,52.682-52.684,52.682c-29.096,0-52.683-23.586-52.683-52.682
		c0-29.095,23.587-52.683,52.683-52.683c14.547,0,27.717,5.896,37.251,15.429l-17.189,17.196c-5.134-5.135-12.227-8.31-20.062-8.31
		c-15.667,0-28.368,12.7-28.368,28.367c0,15.667,12.701,28.368,28.368,28.368c15.668,0,28.368-12.7,28.368-28.368H224.874z"/>
	<path fill="#3B97D3" d="M69.958,101.188c0-12.244,2.262-23.96,6.394-34.753c-3.278-1.116-6.792-1.72-10.446-1.72
		c-17.906,0-32.42,14.516-32.42,32.421c0,0.917,0.038,1.827,0.113,2.726c-18.946,6.645-32.533,24.688-32.533,45.905
		c0,26.857,21.772,48.628,48.63,48.628h63.589L85.423,153.87l8.44,12.276l-8.422-12.289c-9.737-15.085-15.412-33.039-15.482-52.312
		h0.002"/>
	<path fill="#3B97D3" d="M241.666,194.395c24.621,0,44.579-19.958,44.579-44.575c0-12.57-5.201-23.923-13.569-32.026h-0.001
		c-5.361,31.173-25.563,57.273-53.068,70.767c-4.773,2.34-9.767,4.302-14.944,5.846h38.13"/>
</g>
<g id="Layer_3" display="none">
	<g display="inline">
		<path d="M217.386,188.484c-4.924,2.414-10.074,4.438-15.414,6.029h39.329l-6.676-3.016l-6.619-3.014H217.386z"/>
		<path d="M217.385,188.484c28.372-13.918,49.209-40.84,54.739-72.993h0.001c8.631,8.358,13.996,20.068,13.996,33.032
			c0,25.393-20.586,45.979-45.981,45.979c-8.276,0-16.041-2.184-22.751-6.012"/>
		<path d="M72.939,98.732c0.073,19.879,5.926,38.398,15.97,53.958l8.687,12.676c-7.951,17.203-25.36,29.137-45.557,29.137
			c-27.703,0-50.16-22.455-50.16-50.158c0-27.704,22.458-50.161,50.16-50.161c7.46,0,14.54,1.628,20.902,4.549"/>
		<path d="M76.969,126.607c-2.623-8.958-4.03-18.437-4.03-28.244c0-12.63,2.333-24.714,6.595-35.847
			c-3.381-1.151-7.005-1.774-10.774-1.774c-18.469,0-33.44,14.973-33.44,33.441c0,18.468,14.971,33.44,33.44,33.44
			c2.833,0,5.584-0.352,8.211-1.016"/>
		<path d="M269.4,98.363c0,53.098-43.044,96.139-96.141,96.139s-96.141-43.041-96.141-96.139c0-53.097,43.044-96.141,96.141-96.141
			S269.4,45.266,269.4,98.363z M173.26,27.302c-39.246,0-71.06,31.814-71.06,71.061s31.813,71.061,71.06,71.061
			s71.061-31.815,71.061-71.061S212.506,27.302,173.26,27.302z"/>
		<path d="M227.601,98.363c0,30.011-24.33,54.34-54.341,54.34s-54.341-24.329-54.341-54.34s24.33-54.341,54.341-54.341
			c15.005,0,28.589,6.082,38.423,15.915l-17.73,17.737c-5.295-5.296-12.611-8.571-20.692-8.571c-16.16,0-29.26,13.1-29.26,29.26
			s13.1,29.26,29.26,29.26c16.161,0,29.261-13.1,29.261-29.26H227.601z"/>
		<polygon points="52.039,194.502 117.628,194.502 88.89,152.703 59.122,157.813 		"/>
		<path d="M185.494,286.02c6.388-5.744,10.404-14.074,10.404-23.344c0-6.475-1.961-12.494-5.322-17.492l-36.15-52.637
			l-45.194-33.178l-15.504-6.975L185.494,286.02z"/>
		<path d="M120.484,198.637l17.009,24.74c3.362,4.998,5.324,11.016,5.324,17.492c0,9.266-4.018,17.598-10.406,23.342
			c-0.011,0.01-23.099-33.58-45.067-65.574H120.484z"/>
		<path d="M82.234,198.637l1.978,2.855c3.361,4.998,5.322,11.016,5.322,17.492c0,9.27-4.017,17.598-10.404,23.346
			c-0.008,0.008-13.759-19.984-30.042-43.693H82.234z"/>
	</g>
</g>
</svg>
